<svg width="9" height="8" viewBox="0 0 9 8" fill="none" xmlns="http://www.w3.org/2000/svg">
<path d="M6.45064 3.24941C6 3.24941 5.60086 3.16073 5.25322 2.98337C4.90558 2.79335 4.51931 2.52732 4.09442 2.18527C3.77253 1.91924 3.50215 1.72288 3.28326 1.5962C3.07725 1.46952 2.85193 1.40618 2.6073 1.40618C2.19528 1.40618 1.86695 1.56453 1.62232 1.88124C1.37768 2.18527 1.24249 2.59699 1.21674 3.11639H0C0.0257511 2.09026 0.263949 1.3175 0.714592 0.7981C1.17811 0.266033 1.7897 0 2.54936 0C3.01288 0 3.41202 0.0950118 3.74678 0.285035C4.09442 0.462391 4.48069 0.728425 4.90558 1.08314C5.24034 1.34917 5.51073 1.54553 5.71674 1.67221C5.92275 1.78622 6.14807 1.84323 6.3927 1.84323C6.8176 1.84323 7.14592 1.69121 7.37768 1.38717C7.62232 1.07047 7.75751 0.646081 7.78326 0.114014H9C8.97425 1.15281 8.72961 1.93824 8.26609 2.47031C7.81545 2.98971 7.2103 3.24941 6.45064 3.24941Z" fill="#999999"/>
<path d="M6.45064 8C6 8 5.60086 7.91132 5.25322 7.73397C4.90558 7.54394 4.51931 7.27791 4.09442 6.93587C3.77253 6.66983 3.50215 6.47348 3.28326 6.34679C3.07725 6.22011 2.85193 6.15677 2.6073 6.15677C2.19528 6.15677 1.86695 6.31512 1.62232 6.63183C1.37768 6.93587 1.24249 7.34758 1.21674 7.86698H0C0.0257511 6.84086 0.263949 6.06809 0.714592 5.54869C1.17811 5.01663 1.7897 4.75059 2.54936 4.75059C3.01288 4.75059 3.41202 4.84561 3.74678 5.03563C4.09442 5.21299 4.48069 5.47902 4.90558 5.83373C5.24034 6.09976 5.51073 6.29612 5.71674 6.4228C5.92275 6.53682 6.14807 6.59382 6.3927 6.59382C6.8176 6.59382 7.14592 6.44181 7.37768 6.13777C7.62232 5.82106 7.75751 5.39667 7.78326 4.86461H9C8.97425 5.9034 8.72961 6.68884 8.26609 7.2209C7.81545 7.7403 7.2103 8 6.45064 8Z" fill="#999999"/>
</svg>
