<svg width="20" height="12" viewBox="0 0 20 12" fill="none" xmlns="http://www.w3.org/2000/svg">
<path d="M18.4103 4.68521C19.0814 5.32014 19.11 6.33635 18.4756 7.008C16.9048 8.67108 13.6854 11.4791 9.9157 11.3966C6.18876 11.3151 2.89614 8.63567 1.24359 7.02017C0.558208 6.35017 0.565357 5.28955 1.26315 4.63249C2.92203 3.07044 6.20341 0.527127 9.9157 0.608321C13.6339 0.689645 16.8168 3.17762 18.4103 4.68521Z" fill="#999999"/>
<path d="M14.542 6.03835C14.542 8.71201 12.3746 10.8794 9.70095 10.8794C7.02729 10.8794 4.85986 8.71201 4.85986 6.03835C4.85986 3.36469 7.02729 1.19727 9.70095 1.19727C12.3746 1.19727 14.542 3.36469 14.542 6.03835Z" fill="#999999"/>
<path d="M14.252 5.9323C14.252 6.50446 14.1393 7.07103 13.9204 7.59964C13.7014 8.12825 13.3805 8.60856 12.9759 9.01315C12.5713 9.41773 12.091 9.73866 11.5624 9.95762C11.0338 10.1766 10.4672 10.2893 9.89507 10.2893C9.3229 10.2893 8.75633 10.1766 8.22772 9.95762C7.69911 9.73866 7.2188 9.41773 6.81422 9.01315C6.40963 8.60856 6.0887 8.12825 5.86974 7.59964C5.65078 7.07103 5.53809 6.50446 5.53809 5.9323H6.46584C6.46584 6.38263 6.55454 6.82855 6.72687 7.24461C6.89921 7.66066 7.1518 8.03869 7.47023 8.35713C7.78867 8.67556 8.1667 8.92816 8.58276 9.10049C8.99881 9.27283 9.44473 9.36153 9.89507 9.36153C10.3454 9.36153 10.7913 9.27283 11.2074 9.10049C11.6234 8.92816 12.0015 8.67556 12.3199 8.35713C12.6383 8.03869 12.8909 7.66066 13.0633 7.24461C13.2356 6.82855 13.3243 6.38263 13.3243 5.9323H14.252Z" fill="white"/>
<path d="M14.252 5.9322C14.252 5.36004 14.1393 4.79347 13.9204 4.26486C13.7014 3.73625 13.3805 3.25594 12.9759 2.85135C12.5713 2.44677 12.091 2.12584 11.5624 1.90688C11.0338 1.68792 10.4672 1.57522 9.89507 1.57522C9.3229 1.57522 8.75633 1.68792 8.22772 1.90688C7.69911 2.12584 7.2188 2.44677 6.81422 2.85136C6.40963 3.25594 6.0887 3.73625 5.86974 4.26486C5.65078 4.79347 5.53809 5.36004 5.53809 5.93221H6.46584C6.46584 5.48187 6.55454 5.03595 6.72687 4.6199C6.89921 4.20384 7.1518 3.82581 7.47023 3.50737C7.78867 3.18894 8.1667 2.93635 8.58276 2.76401C8.99881 2.59168 9.44473 2.50298 9.89507 2.50298C10.3454 2.50298 10.7913 2.59168 11.2074 2.76401C11.6234 2.93635 12.0015 3.18894 12.3199 3.50737C12.6383 3.82581 12.8909 4.20384 13.0633 4.6199C13.2356 5.03595 13.3243 5.48187 13.3243 5.9322H14.252Z" fill="white"/>
</svg>
